<?xml version="1.0" encoding="UTF-8"?>
<svg enable-background="new 0 0 38 38" version="1.1" viewBox="0 0 38 38" xml:space="preserve" xmlns="http://www.w3.org/2000/svg">
<style type="text/css">
	.st0{fill:#E0E0E0;}
</style>
<title>9C228C72-46EE-452A-8BA7-8AF0D77167B7</title>
<path class="st0" d="m34.9 4l-1.7 10-21 5 21 5 1.7 10-31.8-15 31.8-15zm-0.8-1.5c0.8-0.4 1.8 0 2.2 0.8 0.1 0.3 0.2 0.7 0.1 1l-1.7 10c-0.1 0.7-0.6 1.2-1.3 1.4l-21 5v-3.2l21 5c0.7 0.2 1.1 0.7 1.3 1.4l1.7 10c0.1 0.9-0.5 1.8-1.4 1.9-0.3 0.1-0.7 0-1-0.1l-31.7-15c-0.8-0.4-1.2-1.4-0.8-2.2 0.2-0.3 0.4-0.6 0.8-0.8l31.8-15.2z"/>
</svg>
